<?xml version="1.0" encoding="iso-8859-1"?>
<!-- Generator: Adobe Illustrator 19.0.0, SVG Export Plug-In . SVG Version: 6.00 Build 0)  -->
<svg version="1.1" id="Layer_1" xmlns="http://www.w3.org/2000/svg" xmlns:xlink="http://www.w3.org/1999/xlink" x="0px" y="0px"
	 viewBox="0 0 512 512" style="enable-background:new 0 0 512 512;" xml:space="preserve">
<g>
	<g>
		<path d="M272.121,241.353c-1.246-6.089-7.198-10.015-13.276-8.767c-6.087,1.245-10.01,7.19-8.765,13.276
			c0.678,3.313,1.021,6.725,1.021,10.14c0,27.681-22.521,50.202-50.202,50.202c-27.674,0-50.189-22.521-50.189-50.202
			c0-27.681,22.515-50.202,50.189-50.202c8.177,0,15.968,1.899,23.158,5.646c5.507,2.868,12.303,0.729,15.174-4.78
			c2.871-5.51,0.73-12.304-4.78-15.174c-10.285-5.358-21.887-8.189-33.552-8.189c-40.08,0-72.686,32.613-72.686,72.7
			s32.607,72.7,72.686,72.7c40.087,0,72.7-32.613,72.7-72.7C273.599,251.075,273.102,246.146,272.121,241.353z"/>
	</g>
</g>
<g>
	<g>
		<path d="M500.751,116.823h-184.8c-6.212,0-11.249,5.037-11.249,11.249v23.544H269.64v-23.544c0-6.212-5.037-11.249-11.249-11.249
			h-57.492c-64.882,0-119.532,44.638-134.869,104.818c-6.817-4.79-15.111-7.614-24.057-7.614C18.829,214.026,0,232.856,0,256
			c0,23.144,18.829,41.974,41.974,41.974c8.945,0,17.239-2.823,24.057-7.614c15.337,60.18,69.987,104.818,134.869,104.818
			c73.764,0,134.309-57.682,138.899-130.31l163.66-40.594c5.018-1.244,8.541-5.748,8.541-10.918v-85.285
			C512,121.859,506.963,116.823,500.751,116.823z M41.974,275.477c-10.739,0-19.476-8.738-19.476-19.476s8.737-19.476,19.476-19.476
			c10.732,0,19.464,8.738,19.464,19.476S52.706,275.477,41.974,275.477z M326.121,245.082c-5.018,1.244-8.541,5.748-8.541,10.918
			c0,64.338-52.342,116.681-116.681,116.681c-64.33,0-116.667-52.342-116.667-116.681s52.336-116.681,116.667-116.681h46.243v23.544
			c0,6.212,5.036,11.249,11.249,11.249h57.56c6.212,0,11.249-5.037,11.249-11.249v-23.544h162.301v65.239h0.001L326.121,245.082z"/>
	</g>
</g>
</svg>
